<svg width="26" height="23" viewBox="0 0 26 23" fill="none" xmlns="http://www.w3.org/2000/svg">
<path fill-rule="evenodd" clip-rule="evenodd" d="M12.943 22.6561C13.2328 22.6468 13.5088 22.5287 13.7174 22.3247L25.3844 10.9102C25.6072 10.6922 25.7353 10.3934 25.7406 10.0798C25.7458 9.76608 25.6278 9.46314 25.4124 9.23759C25.197 9.01203 24.902 8.88234 24.5922 8.87703C24.2824 8.87173 23.9832 8.99125 23.7604 9.2093L12.9065 19.8305L2.05033 9.2093C1.94041 9.09945 1.81008 9.01277 1.66686 8.95426C1.52364 8.89576 1.37039 8.86659 1.21597 8.86845C1.06154 8.87031 0.909014 8.90316 0.76721 8.96509C0.625406 9.02703 0.497143 9.11683 0.389843 9.22929C0.282541 9.34175 0.198334 9.47464 0.142092 9.62027C0.0858498 9.76589 0.058691 9.92137 0.0621872 10.0777C0.0656834 10.234 0.0997639 10.3881 0.162458 10.531C0.225151 10.6739 0.31521 10.8028 0.427429 10.9102L12.0945 22.3247C12.2068 22.4346 12.3398 22.5206 12.4856 22.5775C12.6313 22.6344 12.7869 22.6612 12.943 22.6561ZM12.943 13.7878C13.2328 13.7785 13.5088 13.6604 13.7174 13.4564L25.3844 2.04188C25.6072 1.82383 25.7353 1.52511 25.7406 1.21143C25.7458 0.897749 25.6278 0.59481 25.4124 0.369255C25.197 0.143698 24.902 0.0140018 24.5922 0.0086956C24.2824 0.00339127 23.9832 0.122911 23.7604 0.340963L12.9065 10.9622L2.05033 0.340963C1.94041 0.231119 1.81008 0.144434 1.66686 0.085928C1.52364 0.027422 1.37039 -0.00174713 1.21597 0.000112534C1.06154 0.0019722 0.909014 0.0348225 0.76721 0.0967598C0.625406 0.158699 0.497143 0.248495 0.389843 0.360954C0.282541 0.473413 0.198334 0.606302 0.142092 0.75193C0.0858498 0.897558 0.058691 1.05303 0.0621872 1.20936C0.0656834 1.36568 0.0997639 1.51976 0.162458 1.66266C0.225151 1.80556 0.31521 1.93446 0.427429 2.04188L12.0945 13.4564C12.2068 13.5663 12.3398 13.6522 12.4856 13.7092C12.6313 13.7661 12.7869 13.7928 12.943 13.7878Z" fill="#9097FD"/>
</svg>
