<svg width="134" height="128" viewBox="0 0 134 128" fill="none" xmlns="http://www.w3.org/2000/svg">
<path fill-rule="evenodd" clip-rule="evenodd" d="M133.802 0H0V127.313H133.802V0ZM74.2442 24.2026C74.0842 24.0106 73.8602 23.9146 73.5722 23.9146C73.2842 23.9146 73.0522 24.0106 72.8762 24.2026C72.7162 24.3786 72.6362 24.6186 72.6362 24.9226V37.6426L62.7002 24.3226C62.4762 24.0506 62.2042 23.9146 61.8842 23.9146C61.5802 23.9146 61.3402 24.0106 61.1642 24.2026C61.0042 24.3786 60.9242 24.6186 60.9242 24.9226V40.0666C60.9242 40.3706 61.0042 40.6186 61.1642 40.8106C61.3242 40.9866 61.5482 41.0746 61.8362 41.0746C62.1242 41.0746 62.3482 40.9866 62.5082 40.8106C62.6842 40.6186 62.7722 40.3706 62.7722 40.0666V27.3466L72.7322 40.6666C72.9562 40.9386 73.2202 41.0746 73.5242 41.0746C73.8282 41.0746 74.0602 40.9866 74.2202 40.8106C74.3962 40.6186 74.4842 40.3706 74.4842 40.0666V24.9226C74.4842 24.6186 74.4042 24.3786 74.2442 24.2026ZM39.0981 23.9149C39.4021 23.9149 39.6341 24.0109 39.7941 24.2029C39.9701 24.3789 40.0581 24.6189 40.0581 24.9229V40.0669C40.0581 40.3709 39.9701 40.6189 39.7941 40.8109C39.6341 40.9869 39.4021 41.0749 39.0981 41.0749C38.7941 41.0749 38.5541 40.9869 38.3781 40.8109C38.2021 40.6189 38.1141 40.3709 38.1141 40.0669V33.2029H27.9861V40.0669C27.9861 40.3709 27.8981 40.6189 27.7221 40.8109C27.5461 40.9869 27.3061 41.0749 27.0021 41.0749C26.6981 41.0749 26.4581 40.9869 26.2821 40.8109C26.1221 40.6189 26.0421 40.3709 26.0421 40.0669V24.9229C26.0421 24.6189 26.1221 24.3789 26.2821 24.2029C26.4581 24.0109 26.6981 23.9149 27.0021 23.9149C27.3061 23.9149 27.5461 24.0109 27.7221 24.2029C27.8981 24.3789 27.9861 24.6189 27.9861 24.9229V31.5229H38.1141V24.9229C38.1141 24.6189 38.2021 24.3789 38.3781 24.2029C38.5541 24.0109 38.7941 23.9149 39.0981 23.9149ZM29.6733 71.6308C30.7773 71.9828 31.9293 72.1588 33.1293 72.1588C34.3453 72.1588 35.4253 71.9588 36.3693 71.5588C37.3133 71.1588 38.0413 70.5988 38.5533 69.8788C39.0813 69.1588 39.3453 68.3268 39.3453 67.3828C39.3453 66.3908 39.0653 65.5988 38.5053 65.0068C37.9613 64.4148 37.2733 63.9748 36.4413 63.6868C35.6093 63.3828 34.4653 63.0548 33.0093 62.7028C31.6653 62.3828 30.6653 62.0148 30.0093 61.5988C29.3693 61.1668 29.0493 60.5268 29.0493 59.6788C29.0493 58.6868 29.4173 57.9188 30.1533 57.3748C30.8893 56.8148 31.9213 56.5348 33.2493 56.5348C34.1933 56.5348 35.0013 56.6628 35.6733 56.9188C36.3453 57.1748 37.0733 57.6228 37.8573 58.2628C38.1453 58.4388 38.3773 58.5268 38.5533 58.5268C38.7293 58.5268 38.8813 58.4468 39.0093 58.2868C39.1373 58.1108 39.2013 57.9108 39.2013 57.6868C39.2013 57.3828 39.0733 57.1028 38.8173 56.8468C38.1613 56.2068 37.3453 55.7188 36.3693 55.3828C35.4093 55.0308 34.3693 54.8548 33.2493 54.8548C32.0493 54.8548 30.9773 55.0628 30.0333 55.4788C29.1053 55.8788 28.3773 56.4548 27.8493 57.2068C27.3373 57.9428 27.0813 58.7908 27.0813 59.7508C27.0813 60.7588 27.3373 61.5748 27.8493 62.1988C28.3773 62.8228 29.0573 63.3028 29.8893 63.6388C30.7373 63.9748 31.8173 64.2948 33.1293 64.5988C34.1053 64.8228 34.8813 65.0388 35.4573 65.2468C36.0333 65.4548 36.4973 65.7348 36.8493 66.0868C37.2013 66.4228 37.3773 66.8708 37.3773 67.4308C37.3773 68.4068 37.0093 69.1588 36.2733 69.6868C35.5373 70.2148 34.4813 70.4788 33.1053 70.4788C31.2013 70.4788 29.5053 69.9028 28.0173 68.7508C27.7773 68.5748 27.5533 68.4868 27.3453 68.4868C27.1693 68.4868 27.0173 68.5748 26.8893 68.7508C26.7613 68.9108 26.6973 69.1028 26.6973 69.3268C26.6973 69.6628 26.8173 69.9428 27.0573 70.1668C27.7133 70.7748 28.5853 71.2628 29.6733 71.6308ZM27.2724 101.347C26.9684 101.347 26.7204 101.259 26.5284 101.083C26.3524 100.907 26.2644 100.675 26.2644 100.387V85.3867C26.2644 85.0987 26.3524 84.8667 26.5284 84.6907C26.7204 84.5147 26.9684 84.4267 27.2724 84.4267H31.9524C34.6564 84.4267 36.7444 85.1627 38.2164 86.6347C39.7044 88.0907 40.4484 90.1707 40.4484 92.8747C40.4484 95.5787 39.7044 97.6667 38.2164 99.1387C36.7284 100.611 34.6404 101.347 31.9524 101.347H27.2724ZM31.8324 99.6667C36.2164 99.6667 38.4084 97.4027 38.4084 92.8747C38.4084 88.3627 36.2164 86.1067 31.8324 86.1067H28.2324V99.6667H31.8324ZM64.333 101.011C65.437 101.363 66.589 101.539 67.789 101.539C69.005 101.539 70.085 101.339 71.029 100.939C71.973 100.539 72.701 99.9787 73.213 99.2587C73.741 98.5387 74.005 97.7067 74.005 96.7627C74.005 95.7707 73.725 94.9787 73.165 94.3867C72.621 93.7947 71.933 93.3547 71.101 93.0667C70.269 92.7627 69.125 92.4347 67.669 92.0827C66.325 91.7627 65.325 91.3947 64.669 90.9787C64.029 90.5467 63.709 89.9067 63.709 89.0587C63.709 88.0667 64.077 87.2987 64.813 86.7547C65.549 86.1947 66.581 85.9147 67.909 85.9147C68.853 85.9147 69.661 86.0427 70.333 86.2987C71.005 86.5547 71.733 87.0027 72.517 87.6427C72.805 87.8187 73.037 87.9067 73.213 87.9067C73.389 87.9067 73.541 87.8267 73.669 87.6667C73.797 87.4907 73.861 87.2907 73.861 87.0667C73.861 86.7627 73.733 86.4827 73.477 86.2267C72.821 85.5867 72.005 85.0987 71.029 84.7627C70.069 84.4107 69.029 84.2347 67.909 84.2347C66.709 84.2347 65.637 84.4427 64.693 84.8587C63.765 85.2587 63.037 85.8347 62.509 86.5867C61.997 87.3227 61.741 88.1707 61.741 89.1307C61.741 90.1387 61.997 90.9547 62.509 91.5787C63.037 92.2027 63.717 92.6827 64.549 93.0187C65.397 93.3547 66.477 93.6747 67.789 93.9787C68.765 94.2027 69.541 94.4187 70.117 94.6267C70.693 94.8347 71.157 95.1147 71.509 95.4667C71.861 95.8027 72.037 96.2507 72.037 96.8107C72.037 97.7867 71.669 98.5387 70.933 99.0667C70.197 99.5947 69.141 99.8587 67.765 99.8587C65.861 99.8587 64.165 99.2827 62.677 98.1307C62.437 97.9547 62.213 97.8667 62.005 97.8667C61.829 97.8667 61.677 97.9547 61.549 98.1307C61.421 98.2907 61.357 98.4827 61.357 98.7067C61.357 99.0427 61.477 99.3227 61.717 99.5467C62.373 100.155 63.245 100.643 64.333 101.011ZM106.62 84.3067C106.908 84.3067 107.132 84.4027 107.292 84.5947C107.452 84.7707 107.532 85.0107 107.532 85.3147V100.459C107.532 100.763 107.444 101.011 107.268 101.203C107.108 101.379 106.876 101.467 106.572 101.467C106.268 101.467 106.004 101.331 105.78 101.059L95.8197 87.7387V100.459C95.8197 100.763 95.7317 101.011 95.5557 101.203C95.3957 101.379 95.1717 101.467 94.8837 101.467C94.5957 101.467 94.3717 101.379 94.2117 101.203C94.0517 101.011 93.9717 100.763 93.9717 100.459V85.3147C93.9717 85.0107 94.0517 84.7707 94.2117 84.5947C94.3877 84.4027 94.6277 84.3067 94.9317 84.3067C95.2517 84.3067 95.5237 84.4427 95.7477 84.7147L105.684 98.0347V85.3147C105.684 85.0107 105.764 84.7707 105.924 84.5947C106.1 84.4027 106.332 84.3067 106.62 84.3067ZM74.2442 55.2148C74.0842 55.0228 73.8602 54.9268 73.5722 54.9268C73.2842 54.9268 73.0522 55.0228 72.8762 55.2148C72.7162 55.3908 72.6362 55.6308 72.6362 55.9348V68.6548L62.7002 55.3348C62.4762 55.0628 62.2042 54.9268 61.8842 54.9268C61.5802 54.9268 61.3402 55.0228 61.1642 55.2148C61.0042 55.3908 60.9242 55.6308 60.9242 55.9348V71.0788C60.9242 71.3828 61.0042 71.6308 61.1642 71.8228C61.3242 71.9988 61.5482 72.0868 61.8362 72.0868C62.1242 72.0868 62.3482 71.9988 62.5082 71.8228C62.6842 71.6308 62.7722 71.3828 62.7722 71.0788V58.3588L72.7322 71.6788C72.9562 71.9508 73.2202 72.0868 73.5242 72.0868C73.8282 72.0868 74.0602 71.9988 74.2202 71.8228C74.3962 71.6308 74.4842 71.3828 74.4842 71.0788V55.9348C74.4842 55.6308 74.4042 55.3908 74.2442 55.2148ZM107.476 70.4788C107.7 70.6868 107.812 70.9188 107.812 71.1748C107.812 71.3988 107.716 71.6068 107.524 71.7988C107.348 71.9748 107.14 72.0628 106.9 72.0628C106.692 72.0628 106.476 71.9668 106.252 71.7748L97.2757 63.9268V71.0788C97.2757 71.3828 97.1877 71.6308 97.0117 71.8228C96.8357 71.9988 96.5957 72.0868 96.2917 72.0868C95.9877 72.0868 95.7477 71.9988 95.5717 71.8228C95.3957 71.6308 95.3077 71.3828 95.3077 71.0788V55.9348C95.3077 55.6308 95.3957 55.3908 95.5717 55.2148C95.7477 55.0228 95.9877 54.9268 96.2917 54.9268C96.5957 54.9268 96.8357 55.0228 97.0117 55.2148C97.1877 55.3908 97.2757 55.6308 97.2757 55.9348V62.8228L105.844 55.2148C106.02 55.0388 106.228 54.9508 106.468 54.9508C106.708 54.9508 106.916 55.0468 107.092 55.2388C107.268 55.4148 107.356 55.6148 107.356 55.8388C107.356 56.0788 107.252 56.3028 107.044 56.5108L99.2917 63.3268L107.476 70.4788ZM108.788 40.2346C108.788 40.0906 108.756 39.9546 108.692 39.8266L101.828 24.5626C101.732 24.3546 101.588 24.1946 101.396 24.0826C101.204 23.9546 100.988 23.8906 100.748 23.8906C100.524 23.8906 100.316 23.9466 100.124 24.0586C99.9321 24.1706 99.7881 24.3386 99.6921 24.5626L92.8281 39.8266C92.7641 39.9546 92.7321 40.0826 92.7321 40.2106C92.7321 40.4506 92.8281 40.6586 93.0201 40.8346C93.2121 40.9946 93.4361 41.0746 93.6921 41.0746C94.0921 41.0746 94.3721 40.8826 94.5321 40.4986L96.2601 36.6106H105.308L107.012 40.4986C107.172 40.8826 107.452 41.0746 107.852 41.0746C108.108 41.0746 108.324 40.9946 108.5 40.8346C108.692 40.6746 108.788 40.4746 108.788 40.2346ZM100.772 26.3626L104.588 34.9786H96.9801L100.772 26.3626Z" fill="#9097FD"/>
</svg>
