<svg width="367" height="385" viewBox="0 0 367 385" fill="none" xmlns="http://www.w3.org/2000/svg">
<path d="M219.558 98.7088L255.293 105.602L256.807 105.9L296.732 99.4859L273.865 73.4637L279.512 66.8429L264.474 64.9559L261.765 71.4633L247.984 68.8837L238.494 50.393L194.357 56.0407L154.216 70.2195L123.133 44.3187L98.0192 35.121L113.364 0.648804L73.4219 21.2468L36.6902 41.1241L1.21509 56.1227L0.852356 55.7887L1.24005 56.1549L4.10415 54.9568L4.13735 55.1644L11.0684 57.7091L14.0783 69.7845L53.0325 83.5168L78.6868 96.4421L91.5006 96.9873L100.316 98.1294L102.484 109.058L113.117 113.557L116.9 122.935L113.968 128.165L111.58 138.81L121.662 139.667L117.998 150.188L123.927 158.137L123.969 158.025L125.145 158.515L152.939 117.131L184.005 111.663L219.558 98.7088Z" fill="#EAECFF"/>
<path d="M354.15 232.668L336.649 226.561L308.168 256.118L298.807 255.725L296.142 239.213L321.377 212.408L324.969 182.314L320.557 152.483L286.197 127.382L247.312 114.53L241.005 139.619L230.9 146.346L222.753 178.86L218.503 156.752L199.983 172.442L188.24 194.467L175.72 226.603L173.021 254.449L188.257 295.256L186.514 338.536L166.586 370.251L156.656 379.179L208.779 380.068L254.361 379.739L254.424 384.863L279.227 384.168L301.287 383.873L319.55 382.948L335.561 357.276L345.551 334.053L366.976 297.325L363.767 270.505L354.15 232.668Z" fill="#EAECFF"/>
<path d="M307.197 322.467C311.824 322.467 315.68 326.371 315.68 331.154C315.68 335.839 311.824 339.743 307.197 339.743C302.473 339.743 298.617 335.839 298.617 331.154C298.617 326.371 302.473 322.467 307.197 322.467ZM307.197 324.419C303.533 324.419 300.545 327.445 300.545 331.154C300.545 334.765 303.533 337.791 307.197 337.791C310.763 337.791 313.752 334.765 313.752 331.154C313.752 327.445 310.763 324.419 307.197 324.419Z" fill="#FCCD00"/>
<path d="M306.233 314.951C306.233 314.366 306.619 313.975 307.197 313.975C307.679 313.975 308.161 314.366 308.161 314.951V320.32C308.161 320.906 307.679 321.296 307.197 321.296C306.619 321.296 306.233 320.906 306.233 320.32V314.951Z" fill="#FCCD00"/>
<path d="M298.328 317.588C298.039 317.1 298.232 316.514 298.714 316.319C299.196 316.026 299.774 316.123 299.967 316.611L302.666 321.297C302.955 321.785 302.763 322.37 302.281 322.663C301.895 322.858 301.22 322.761 301.027 322.273L298.328 317.588Z" fill="#FCCD00"/>
<path d="M292.834 323.833C292.352 323.638 292.256 323.053 292.545 322.565C292.738 322.076 293.316 321.881 293.798 322.174L298.425 324.907C298.907 325.102 299.004 325.786 298.811 326.176C298.522 326.664 297.943 326.859 297.461 326.566L292.834 323.833Z" fill="#FCCD00"/>
<path d="M291.194 332.13C290.616 332.13 290.23 331.642 290.23 331.154C290.23 330.569 290.616 330.178 291.194 330.178H296.496C297.075 330.178 297.46 330.569 297.46 331.154C297.46 331.642 297.075 332.13 296.496 332.13H291.194Z" fill="#FCCD00"/>
<path d="M293.798 340.037C293.316 340.33 292.738 340.134 292.545 339.646C292.256 339.158 292.352 338.573 292.834 338.378L297.461 335.645C297.943 335.352 298.522 335.547 298.811 336.035C299.004 336.425 298.907 337.109 298.425 337.304L293.798 340.037Z" fill="#FCCD00"/>
<path d="M299.967 345.6C299.774 346.088 299.196 346.186 298.714 345.991C298.232 345.698 298.039 345.112 298.328 344.624L301.027 339.939C301.22 339.451 301.895 339.354 302.281 339.549C302.763 339.842 302.955 340.427 302.666 340.915L299.967 345.6Z" fill="#FCCD00"/>
<path d="M308.161 347.26C308.161 347.845 307.679 348.236 307.197 348.236C306.619 348.236 306.233 347.845 306.233 347.26V341.891C306.233 341.306 306.619 340.915 307.197 340.915C307.679 340.915 308.161 341.306 308.161 341.891V347.26Z" fill="#FCCD00"/>
<path d="M315.969 344.624C316.259 345.112 316.066 345.698 315.584 345.991C315.102 346.186 314.523 346.088 314.331 345.6L311.631 340.915C311.342 340.427 311.535 339.842 312.017 339.549C312.499 339.354 313.077 339.451 313.27 339.939L315.969 344.624Z" fill="#FCCD00"/>
<path d="M321.464 338.378C321.946 338.573 322.042 339.158 321.849 339.646C321.56 340.134 320.982 340.33 320.5 340.037L315.872 337.304C315.39 337.109 315.294 336.425 315.487 336.035C315.776 335.547 316.354 335.352 316.836 335.645L321.464 338.378Z" fill="#FCCD00"/>
<path d="M323.103 330.178C323.681 330.178 324.067 330.569 324.067 331.154C324.067 331.642 323.681 332.13 323.103 332.13H317.801C317.222 332.13 316.837 331.642 316.837 331.154C316.837 330.569 317.222 330.178 317.801 330.178H323.103Z" fill="#FCCD00"/>
<path d="M320.5 322.174C320.982 321.881 321.56 322.076 321.849 322.565C322.042 323.053 321.946 323.638 321.464 323.833L316.836 326.566C316.354 326.859 315.776 326.664 315.487 326.176C315.294 325.786 315.39 325.102 315.872 324.907L320.5 322.174Z" fill="#FCCD00"/>
<path d="M314.331 316.611C314.523 316.123 315.102 316.026 315.584 316.319C316.066 316.514 316.259 317.1 315.969 317.588L313.27 322.273C313.077 322.761 312.499 322.858 312.017 322.663C311.535 322.37 311.342 321.785 311.631 321.297L314.331 316.611Z" fill="#FCCD00"/>
</svg>
